<svg xmlns="http://www.w3.org/2000/svg" viewBox="0 0 600 340" fill="none"><defs><linearGradient id="bg" x2="1" y2="1"><stop stop-color="#0b1731"/><stop offset="1" stop-color="#163652"/></linearGradient><linearGradient id="line" x2="1" y2="1"><stop stop-color="#fbbf24"/><stop offset="1" stop-color="#fb7185"/></linearGradient><radialGradient id="glow"><stop stop-color="#fbbf24" stop-opacity=".28"/><stop offset="1" stop-color="#fbbf24" stop-opacity="0"/></radialGradient><pattern id="grid" width="34" height="34" patternUnits="userSpaceOnUse"><path d="M34 0H0V34" stroke="white" stroke-opacity=".055"/></pattern></defs><path fill="url(#bg)" d="M0 0h600v340H0z"/><path fill="url(#grid)" d="M0 0h600v340H0z"/><ellipse cx="300" cy="170" rx="230" ry="170" fill="url(#glow)"/><ellipse cx="300" cy="288" rx="170" ry="24" stroke="#fbbf24" opacity=".25"/><ellipse cx="300" cy="288" rx="125" ry="14" stroke="#fbbf24" opacity=".2"/><g stroke="url(#line)" stroke-width="5" stroke-linecap="round" stroke-linejoin="round"><rect x="226" y="56" width="152" height="220" rx="14"/><path d="M254 97h95M254 124h95M254 151h61"/><circle cx="310" cy="209" r="49"/><path d="m344 246 43 48M170 126v78m-20-59h40M421 95v35m-17-17h34"/></g><g fill="#fbbf24"><circle cx="92" cy="100" r="4"/><circle cx="487" cy="210" r="4"/><circle cx="473" cy="57" r="3"/></g><g stroke="#fbbf24" opacity=".4"><path d="M60 253h50l28-28M468 98h60M74 64h35M475 284h53"/></g></svg>